{"title":"Mercur S01 E03 - 720p x265 HEVC - DAN (ENG SUBS) [BRSHNKV]","magnet":"magnet:?xt=urn:btih:831e4700512861ff39d8b7004f78e9d446d68d99&dn=Mercur+S01+E03+-+720p+x265+HEVC+-+DAN+%28ENG+SUBS%29+%5BBRSHNKV%5D&tr=udp%3A%2F%2Ftracker.leechers-paradise.org%3A6969&tr=udp%3A%2F%2Fzer0day.ch%3A1337&tr=udp%3A%2F%2Fopen.demonii.com%3A1337&tr=udp%3A%2F%2Ftracker.coppersurfer.tk%3A6969&tr=udp%3A%2F%2Fexodus.desync.com%3A6969","uploader":"BRSHNKV","categoryP":"video","categoryS":"hd___tv_shows","size":"438759765","seeders":"0","leechers":"0","description":" <a href=\"https://www.imdb.com/title/tt6416550/?ref_=rvi_tt\" rel=\"nofollow\" target=\"_NEW\">https://www.imdb.com/title/tt6416550/?ref_=rvi_tt</a>\r\n\r\nFormat                                   : MPEG-4\r\nFormat profile                           : Base Media / Version 2\r\nCodec ID                                 : mp42\r\nFile size                                : 418 MiB\r\nDuration                                 : 42mn 45s\r\nOverall bit rate mode                    : Variable\r\nOverall bit rate                         : 1 368 Kbps\r\nMovie name                               : Mercur S01 E03 - x265 HEVC [BRSHNKV]\r\nEncoded date                             : UTC 2018-04-16 23:18:44\r\nTagged date                              : UTC 2018-04-16 23:18:44\r\nWriting application                      : HandBrake 20160211184813-ffd8cb1-master 2016021301\r\n\r\nVideo\r\nID                                       : 1\r\nFormat                                   : HEVC\r\nFormat/Info                              : High Efficiency Video Coding\r\nFormat profile                           : Main <a href=\"/cdn-cgi/l/email-protection\" class=\"__cf_email__\" data-cfemail=\"93a2a3d3dfa0bda2\">[email&#xA0;protected]</a>@Main\r\nCodec ID                                 : hev1\r\nCodec ID/Info                            : High Efficiency Video Coding\r\nDuration                                 : 42mn 45s\r\nBit rate                                 : 1 201 Kbps\r\nWidth                                    : 1 024 pixels\r\nHeight                                   : 576 pixels\r\nDisplay aspect ratio                     : 16:9\r\nFrame rate mode                          : Constant\r\nFrame rate                               : 25.000 fps\r\nColor space                              : YUV\r\nChroma subsampling                       : 4:2:0\r\nBit depth                                : 10 bits\r\nBits/(Pixel*Frame)                       : 0.081\r\nStream size                              : 367 MiB (88%)\r\nWriting library                          : x265 1.9:[Mac OS X][clang 7.0.2][64 bit] 10bit\r\nEncoded date                             : UTC 2018-04-16 23:18:44\r\nTagged date                              : UTC 2018-04-16 23:18:44\r\nColor range                              : Limited\r\nColor primaries                          : BT.601 PAL\r\nTransfer characteristics                 : BT.709\r\nMatrix coefficients                      : BT.601\r\n\r\nAudio\r\nID                                       : 2\r\nFormat                                   : AAC\r\nFormat/Info                              : Advanced Audio Codec\r\nFormat profile                           : LC\r\nCodec ID                                 : 40\r\nDuration                                 : 42mn 45s\r\nBit rate mode                            : Variable\r\nBit rate                                 : 161 Kbps\r\nChannel(s)                               : 2 channels\r\nChannel positions                        : Front: L R\r\nSampling rate                            : 48.0 KHz\r\nCompression mode                         : Lossy\r\nStream size                              : 49.2 MiB (12%)\r\nTitle                                    : Stereo / Stereo\r\nLanguage                                 : Danish","last_updated":"2018-04-19T13:47:07.938Z","parsed":{"xt":"urn:btih:831e4700512861ff39d8b7004f78e9d446d68d99","dn":"Mercur S01 E03 - 720p x265 HEVC - DAN (ENG SUBS) [BRSHNKV]","tr":["udp://exodus.desync.com:6969","udp://open.demonii.com:1337","udp://tracker.coppersurfer.tk:6969","udp://tracker.leechers-paradise.org:6969","udp://zer0day.ch:1337"],"infoHash":"831e4700512861ff39d8b7004f78e9d446d68d99","infoHashBuffer":{"type":"Buffer","data":[131,30,71,0,81,40,97,255,57,216,183,0,79,120,233,212,70,214,141,153]},"name":"Mercur S01 E03 - 720p x265 HEVC - DAN (ENG SUBS) [BRSHNKV]","announce":["udp://exodus.desync.com:6969","udp://open.demonii.com:1337","udp://tracker.coppersurfer.tk:6969","udp://tracker.leechers-paradise.org:6969","udp://zer0day.ch:1337"],"urlList":[]}}